# Blender 3.6.3
# www.blender.org
mtllib littlehouse.mtl
o Cube
v -1.393010 -1.000000 2.668496
v -1.393010 1.000000 2.668496
v -1.393010 -1.000000 -2.668496
v -1.393010 1.000000 -2.668496
v 1.393010 -1.000000 2.334934
v 1.393010 -1.000000 1.167467
v 1.710379 1.000000 -2.668496
v 1.710379 -1.000000 -2.668496
v 1.710379 1.000000 2.334934
v 1.710379 1.000000 2.668496
v 1.710379 -1.000000 2.668496
v 1.710379 -1.000000 2.334934
v 1.710379 -1.000000 1.167467
v 1.710379 1.000000 1.167467
v 1.710379 -1.000000 -0.990924
v 1.710379 1.000000 -0.990924
v 3.494784 0.628289 -1.001096
v 3.494784 -1.000000 -1.001096
v 3.494784 0.628289 -2.678667
v 3.494784 -1.000000 -2.678667
v 2.410779 1.000000 -2.668496
v 2.410779 1.000000 -0.990924
v 2.411745 -1.000000 2.666134
v 2.411745 1.000000 2.666134
v 2.092995 1.000000 2.666134
v 2.092995 -1.000000 2.666134
v 2.410269 -1.000000 2.333495
v 2.410269 1.000000 2.333495
v 2.092370 -1.000000 2.334988
v 2.092370 1.000000 2.334988
v 1.393010 1.000000 1.167467
v 1.393010 -1.000000 2.334934
v 1.393010 0.500000 1.167467
v 1.393010 0.500000 2.334934
v 1.393010 0.500000 2.334934
v 1.393010 0.750000 1.167467
v 1.393010 0.750000 2.334934
v 1.393010 0.750000 2.334934
v 1.393010 0.750000 1.167467
v 1.710379 0.750000 2.334934
v 1.710379 0.750000 1.167467
v 1.709372 0.750000 2.334934
v 1.709372 1.000000 2.334934
v 1.709372 0.750000 1.167467
v 1.709372 1.000000 1.167467
v 1.710379 1.251376 -2.668496
v 1.710379 1.251376 -0.990924
v 2.410779 1.251376 -0.990924
v 2.410779 1.251376 -2.668496
v 2.410779 1.000000 2.666564
v 1.710379 1.000000 2.666564
v 2.410779 1.251376 2.666564
v 1.710379 1.251376 2.666564
v 1.710379 1.251376 1.180709
v 2.410779 1.251376 1.180709
v 1.710379 1.000000 -2.668496
v 1.710379 1.000000 2.668496
v -1.393010 1.000000 2.668496
v -1.393010 1.000000 -2.668496
v 1.710379 1.000000 -2.668496
v 1.710379 1.000000 2.668496
v 1.710379 2.387143 -2.668496
v 1.710379 2.387143 -0.990924
v 2.410779 2.387143 -0.990924
v 1.710379 2.387143 1.180709
v 1.710379 2.387143 2.666564
v 2.410779 2.387143 1.180709
v -1.393044 2.387101 2.668496
v -1.393044 2.387101 -2.668496
v 1.710345 2.387101 2.668496
v 1.710345 2.387101 -2.668496
v 0.158684 1.000000 2.668496
v 0.158684 1.000000 -2.668496
v 0.158651 4.034152 2.668496
v 2.410779 3.538249 0.094892
v 2.410779 2.641611 -0.990924
v 0.158651 4.034152 -2.668496
v 2.029394 3.792717 0.094892
v 0.404387 3.792717 0.094892
v 0.404387 2.641611 1.180709
v 0.404387 2.641611 -0.990924
v 2.850331 3.641537 0.094892
v 2.524959 2.387143 -0.990924
v 2.524959 2.387143 1.180709
v 2.524959 2.641611 1.180709
v 2.850331 3.896005 0.094892
v 2.524959 2.641611 -0.990924
v 1.710379 2.309097 1.405709
v 0.404387 2.563565 1.405709
v 2.524959 2.563565 1.405709
v 2.524959 2.309097 1.405709
v 0.404387 2.563565 -1.215924
v 2.524959 2.563565 -1.215924
v 2.524959 2.309097 -1.215924
v 3.541659 0.677208 -2.678667
v 3.541659 0.677208 -1.001096
v 2.457654 1.136700 -2.668496
v 2.457654 1.136700 -0.990924
v 3.629868 0.567668 -2.688667
v 3.629868 0.567668 -0.991096
v 3.638591 0.613690 -2.688667
v 3.638591 0.613690 -0.991096
v 2.410719 1.167310 -2.668856
v 2.410719 1.167310 -0.991285
v -1.490114 2.428602 3.000000
v 0.153909 4.312394 3.030000
v -1.490114 2.428602 -3.000000
v 0.153909 4.312394 -3.030000
v 1.797530 2.428601 3.000000
v 1.797530 2.428601 -3.000000
v -1.490114 2.278602 -3.000000
v 0.259975 3.997625 3.000000
v 0.259975 3.997625 -3.000000
v -1.490114 2.278602 3.000000
v 0.047843 3.997625 3.000000
v 0.047843 3.997625 -3.000000
v 1.798334 2.278603 -3.000000
v 1.798334 2.278603 3.000000
v 0.153909 3.891559 -3.000000
v 0.153909 3.891559 3.000000
v 0.153909 4.041700 0.000000
v 0.259975 3.997625 0.000000
v 0.047843 3.997625 0.000000
v 0.259975 3.997625 1.500000
v 0.153909 4.103691 1.500000
v 0.047843 3.997625 1.500000
v 0.153909 4.190529 2.250000
v 0.153909 4.103691 -1.500000
v 0.047843 3.997625 -1.500000
v 0.259975 3.997625 -1.500000
v 0.153909 4.190529 -2.250000
v 2.347522 2.366240 3.100000
v 2.347522 2.366240 -3.100000
v 2.348326 2.216242 -3.100000
v 2.348326 2.216242 3.100000
v -2.040114 2.363294 3.100000
v -2.040114 2.213294 -3.100000
v -2.040114 2.363294 -3.100000
v -2.040114 2.213294 3.100000
v 1.704705 1.233490 2.652616
v 1.704705 1.782193 2.652616
v 1.704705 1.233490 -2.652616
v 1.704705 1.782193 -2.652616
v 2.387064 1.233490 2.652616
v 2.387064 1.782193 2.652616
v 2.387064 1.233490 -2.652616
v 2.387064 1.782193 -2.652616
v 2.387064 1.233490 -0.994731
v 2.387064 1.782193 -0.994731
v 2.387064 1.782193 1.160520
v 2.387064 1.233490 1.160520
vn 1.0000 -0.0000 -0.0000
vn -0.0000 -0.0000 -1.0000
vn 0.0055 -0.0011 1.0000
vn -0.0000 -0.0000 1.0000
vn 1.0000 -0.0000 -0.0044
vn 0.0047 -0.0000 1.0000
vn -0.0000 1.0000 -0.0000
vn -0.0019 0.0020 -1.0000
vn -0.0106 0.0057 -0.9999
vn 0.9705 -0.0000 -0.2409
vn -0.0000 0.6862 -0.7274
vn -0.0000 -1.0000 -0.0000
vn 0.9705 -0.0000 0.2409
vn -0.0737 0.6673 -0.7411
vn 0.1257 -0.6741 -0.7279
vn 0.1257 -0.6741 0.7279
vn -0.0000 0.9448 0.3277
vn -0.0000 0.9448 -0.3277
vn 0.3903 0.9207 -0.0000
vn 0.0034 -0.0015 1.0000
vn 0.9825 -0.1862 -0.0000
vn 0.5481 0.8364 -0.0000
vn 0.5463 0.8376 -0.0000
vn -0.0836 0.6645 0.7426
vn -0.0000 -0.0711 0.9975
vn 0.0404 -0.0000 0.9992
vn 0.1127 0.9936 -0.0000
vn -0.0000 -0.0711 -0.9975
vn -0.0405 -0.0002 0.9992
vn 0.5776 0.8161 0.0169
vn -0.5776 0.8161 -0.0169
vn -0.7047 0.7047 -0.0816
vn 0.5776 0.8161 -0.0169
vn 0.7047 0.7047 -0.0816
vn 0.7047 0.7047 0.0816
vn -0.7242 0.6896 -0.0000
vn -0.5776 0.8161 0.0169
vn 0.7243 0.6895 -0.0000
vn -0.7047 0.7047 0.0816
vn 1.0000 0.0054 -0.0000
vn -0.1790 -0.0010 -0.9838
vn -1.0000 -0.0000 -0.0000
vn 0.1789 -0.0000 -0.9839
vn -0.1179 0.9930 -0.0000
vn 0.7003 -0.7138 -0.0000
vn -0.0000 0.6862 0.7274
vt 0.068035 0.677212
vt 0.068035 0.657458
vt 0.094354 0.657458
vt 0.094354 0.815490
vt 0.068035 0.815490
vt 0.672373 0.882594
vt 0.672373 0.937937
vt 0.652538 0.937937
vt 0.652538 0.882594
vt 0.772490 0.807769
vt 0.827754 0.807770
vt 0.827754 0.965802
vt 0.686954 0.965802
vt 0.686954 0.837141
vt 0.845274 0.579587
vt 0.870425 0.579587
vt 0.870425 0.737619
vt 0.845274 0.737619
vt 0.845274 0.421555
vt 0.871521 0.421555
vt 0.871521 0.579587
vt 0.845274 0.737619
vt 0.870358 0.737619
vt 0.870358 0.895651
vt 0.845274 0.895651
vt 0.822021 0.393311
vt 0.864990 0.393311
vt 0.864990 0.304932
vt 0.103954 0.841558
vt 0.103954 0.960082
vt 0.011836 0.960082
vt 0.011836 0.821804
vt 0.103954 0.821804
vt 0.870358 0.757373
vt 0.870358 0.737619
vt 0.895400 0.737619
vt 0.895400 0.875897
vt 0.870358 0.875897
vt 0.426667 0.894604
vt 0.268858 0.894604
vt 0.268858 0.724057
vt 0.288584 0.724057
vt 0.426667 0.724057
vt 0.844764 0.722114
vt 0.815433 0.807769
vt 0.686954 0.807769
vt 0.686954 0.421555
vt 0.844763 0.421555
vt 0.844764 0.666772
vt 1.000000 0.554110
vt 0.871521 0.554110
vt 0.871521 0.421555
vt 1.000000 0.421555
vt 0.258097 0.999990
vt 0.258097 0.977911
vt 0.258075 0.977911
vt 0.258075 0.999990
vt 0.688182 0.972366
vt 0.774184 0.972366
vt 0.774184 0.950286
vt 0.688182 0.950286
vt 0.827754 0.813030
vt 0.839865 0.807770
vt 0.839122 0.812133
vt 0.839865 0.905164
vt 0.838307 0.914196
vt 0.834701 0.915010
vt 0.834853 0.903303
vt 0.895467 0.579587
vt 0.950731 0.579587
vt 0.950731 0.712142
vt 0.895467 0.712142
vt 0.870358 0.875897
vt 0.925622 0.875897
vt 0.925622 0.993303
vt 0.870358 0.993303
vt 0.288692 0.894604
vt 0.288692 0.949947
vt 0.268858 0.949947
vt 0.268858 0.894604
vt 0.033973 0.806516
vt 0.023887 0.821804
vt 0.011836 0.805722
vt 0.021922 0.790433
vt 0.033973 0.657458
vt 0.046024 0.673541
vt 0.895467 0.579587
vt 0.895467 0.599341
vt 0.895467 0.717865
vt 0.870425 0.717865
vt 0.111049 0.724057
vt 0.268858 0.724057
vt 0.268858 0.969274
vt 0.111049 0.969274
vt 0.220497 0.724057
vt 0.111049 0.724054
vt 0.111049 0.601445
vt 0.350457 0.601448
vt 0.976851 0.133359
vt 0.976851 0.265914
vt 0.887233 0.265914
vt 0.887233 0.133359
vt 0.481931 0.981359
vt 0.426667 0.981359
vt 0.426667 0.891616
vt 0.481931 0.891616
vt 0.641144 0.882594
vt 0.641144 1.000000
vt 0.551526 1.000000
vt 0.551526 0.882594
vt 0.537196 0.981359
vt 0.537196 0.891616
vt 0.350457 0.478839
vt 0.459905 0.478837
vt 0.589865 0.601445
vt 0.551526 0.882594
vt 0.551526 0.754192
vt 0.676386 0.724057
vt 0.676386 0.882594
vt 0.459905 0.724054
vt 0.350457 0.724057
vt 0.111049 0.478837
vt 0.220497 0.478839
vt 0.845274 0.421555
vt 0.845274 0.807769
vt 0.844764 0.666772
vt 0.060317 0.790756
vt 0.068035 0.807370
vt 0.053741 0.821491
vt 0.046024 0.804877
vt 0.053741 0.671579
vt 0.068035 0.657458
vt 0.956122 0.993832
vt 0.947176 0.992997
vt 0.928662 0.865725
vt 0.993945 0.865725
vt 0.928662 0.871204
vt 0.919896 0.872950
vt 0.895400 0.750349
vt 0.928662 0.737619
vt 0.920496 0.278644
vt 0.896000 0.401245
vt 0.887234 0.399499
vt 0.887234 0.265914
vt 0.276123 0.712158
vt 0.291260 0.709717
vt 0.311279 0.651611
vt 0.087377 0.489899
vt 0.087377 0.657458
vt 0.068586 0.657458
vt 0.068586 0.489899
vt 0.340576 0.640381
vt 0.295654 0.718994
vt 0.340576 0.679932
vt 0.049795 0.657458
vt 0.049795 0.498921
vt 0.049795 0.489899
vt 0.887234 0.000000
vt 0.980133 0.000804
vt 0.980133 0.133359
vt 0.887234 0.132555
vt 0.964535 0.270278
vt 0.963791 0.265914
vt 0.975903 0.271174
vt 0.968804 0.361447
vt 0.968955 0.373142
vt 0.965349 0.372329
vt 0.963791 0.363308
vt 0.049795 0.489899
vt 0.049795 0.624034
vt 0.046099 0.624034
vt 0.046099 0.489899
vt 0.042864 0.490689
vt 0.042864 0.623244
vt 0.033720 0.624034
vt 0.033720 0.489899
vt 0.670583 0.478837
vt 0.670583 0.611392
vt 0.666161 0.611420
vt 0.666161 0.478865
vt 0.706789 0.132555
vt 0.796406 0.132555
vt 0.887234 0.218352
vt 0.796406 0.304149
vt 0.706789 0.304149
vt 0.706789 0.421555
vt 0.686954 0.421555
vt 0.686954 0.132555
vt 0.686954 0.000000
vt 0.706789 0.000000
vt 0.928662 0.737619
vt 0.993949 0.737619
vt 0.966490 0.865725
vt 0.044516 0.655640
vt 0.033926 0.650380
vt 0.033926 0.624034
vt 0.049795 0.645048
vt 0.654326 0.478837
vt 0.666161 0.478837
vt 0.664406 0.652410
vt 0.656081 0.660836
vt 0.599189 0.652291
vt 0.622035 0.689930
vt 0.612711 0.697230
vt 0.589865 0.659592
vt 0.610291 0.478837
vt 0.622035 0.480271
vt 0.043702 0.481997
vt 0.043702 0.007902
vt 0.087377 0.000000
vt 0.001733 0.663494
vt 0.000000 0.489899
vt 0.011836 0.489899
vt 0.010102 0.671875
vt 0.094354 0.797046
vt 0.110223 0.776032
vt 0.110223 0.802378
vt 0.099633 0.807638
vt 0.645035 0.652258
vt 0.622035 0.480281
vt 0.633777 0.478837
vt 0.654326 0.659601
vt 0.631325 0.697113
vt 0.622035 0.689770
vt 0.000000 0.671909
vt 0.011666 0.671875
vt 0.008840 0.790450
vt 0.000000 0.790416
vt 0.670583 0.597445
vt 0.682249 0.597411
vt 0.679423 0.715986
vt 0.670583 0.715952
vt 0.654326 0.660836
vt 0.665720 0.719392
vt 0.654326 0.722598
vt 0.106020 0.775999
vt 0.097180 0.776032
vt 0.094354 0.657458
vt 0.106020 0.657492
vt 0.011395 0.852212
vt 0.000000 0.849006
vt 0.011395 0.790450
vt 0.000000 0.852212
vt 0.011395 0.910768
vt 0.000000 0.913974
vt 0.134807 0.120894
vt 0.118013 0.061632
vt 0.111049 0.000000
vt 0.134807 0.002370
vt 0.308148 0.002370
vt 0.308148 0.476466
vt 0.134807 0.476466
vt 0.111049 0.478837
vt 0.118013 0.417204
vt 0.134807 0.357942
vt 0.134807 0.239418
vt 0.682249 0.597378
vt 0.673409 0.597411
vt 0.670583 0.478837
vt 0.682249 0.478870
vt 0.331908 0.120894
vt 0.315113 0.061632
vt 0.308148 0.000000
vt 0.331908 0.002370
vt 0.505226 0.002370
vt 0.505226 0.476466
vt 0.331908 0.476466
vt 0.308148 0.478837
vt 0.315113 0.417204
vt 0.331908 0.357942
vt 0.331908 0.239418
vt 0.652538 0.944356
vt 0.641143 0.941150
vt 0.652538 0.882594
vt 0.087377 0.000000
vt 0.099213 0.000000
vt 0.099213 0.489899
vt 0.087377 0.489899
vt 0.672373 0.883970
vt 0.684128 0.882594
vt 0.684128 0.927038
vt 0.672373 0.928414
vt 0.111049 0.000000
vt 0.111049 0.489899
vt 0.099213 0.489899
vt 0.099213 0.000000
vt 0.043001 0.994465
vt 0.043001 0.983435
vt 0.000010 0.983435
vt 0.000010 0.994465
vt 0.043702 0.007902
vt 0.043702 0.481997
vt 0.000000 0.489899
vt 0.000000 0.000000
vt 0.686954 0.000000
vt 0.686954 0.474096
vt 0.505226 0.474096
vt 0.505226 0.000000
vt 0.331988 0.948521
vt 0.288692 0.948521
vt 0.288692 0.894604
vt 0.331988 0.894604
vt 0.375283 0.948521
vt 0.331988 0.948521
vt 0.331987 0.894604
vt 0.375283 0.894604
vt 0.994026 0.697486
vt 0.950731 0.697486
vt 0.950731 0.579587
vt 0.994026 0.579587
vt 0.963792 0.396913
vt 0.920496 0.396913
vt 0.920496 0.265914
vt 0.963792 0.265914
vt 0.551527 0.724057
vt 0.551527 0.891616
vt 0.426667 0.852458
vt 0.426667 0.724057
s 0
usemtl Material.004
f 40/1/1 9/2/1 10/3/1 11/4/1 12/5/1
f 21/6/2 7/7/2 46/8/2 49/9/2
f 22/10/3 16/11/3 15/12/3 18/13/3 17/14/3
f 24/15/4 25/16/4 26/17/4 23/18/4
f 27/15/5 28/19/5 24/20/5 23/21/5
f 28/22/6 30/23/6 29/24/6 27/25/6
f 5/26/7 32/27/7 12/28/7
f 34/29/1 5/30/1 6/31/1 39/32/1 37/33/1
f 35/34/2 38/35/2 40/36/2 12/37/2 32/38/2 5/38/2 34/34/2
f 15/39/1 16/40/1 14/41/1 41/42/1 13/43/1
f 21/44/8 19/45/8 20/46/8 3/47/8 4/48/8 7/49/8
f 20/50/1 19/51/1 17/52/1 18/53/1
f 34/54/7 37/55/7 38/56/7 35/57/7
f 45/58/1 43/59/1 42/60/1 44/61/1
f 21/62/9 103/63/9 97/64/9 95/65/9 101/66/9 99/67/9 19/68/9
f 47/69/7 48/70/7 49/71/7 46/72/7
f 53/73/7 52/74/7 55/75/7 54/76/7
f 51/77/4 50/78/4 52/79/4 53/80/4
f 83/81/10 94/82/10 93/83/10 87/84/10 86/85/10 82/86/10
f 36/87/4 33/88/4 6/89/4 13/90/4 41/16/4
f 2/91/4 1/92/4 11/93/4 10/94/4
f 68/95/4 58/96/4 72/97/4 74/98/4
f 47/99/1 46/100/1 62/101/1 63/102/1
f 54/103/4 55/104/4 67/105/4 65/106/4
f 53/107/1 54/108/1 65/109/1 66/110/1
f 48/111/2 47/103/2 63/106/2 64/112/2
f 73/98/2 59/113/2 69/114/2 77/115/2
f 79/116/11 78/117/11 76/118/11 81/119/11
f 77/115/2 71/120/2 60/121/2 73/98/2
f 61/122/4 70/123/4 74/98/4 72/97/4
f 3/124/12 20/125/12 8/126/12
f 85/127/13 90/128/13 91/129/13 84/130/13 82/131/13 86/132/13
f 87/133/14 76/134/14 78/135/14 86/136/14
f 84/137/15 67/138/15 75/139/15 82/140/15
f 75/141/16 64/142/16 83/143/16 82/144/16
f 91/145/4 90/146/4 89/147/4
f 89/148/17 90/149/17 85/150/17 80/151/17
f 93/152/2 94/153/2 92/154/2
f 81/155/18 76/156/18 87/157/18 93/151/18 92/150/18
f 98/158/19 96/159/19 95/160/19 97/161/19
f 98/162/20 104/163/20 22/164/20 17/165/20 100/166/20 102/167/20 96/168/20
f 100/169/21 99/170/21 101/171/21 102/172/21
f 95/173/22 96/174/22 102/175/22 101/176/22
f 98/177/23 97/178/23 103/179/23 104/180/23
f 48/181/1 64/182/1 75/183/1 67/184/1 55/185/1 52/186/1 50/187/1 22/188/1 21/189/1 49/190/1
f 86/191/24 78/192/24 85/193/24
f 120/194/25 112/195/25 106/196/25 115/197/25
f 119/198/2 113/199/2 110/200/2 117/201/2
f 105/202/26 136/203/26 139/204/26 114/205/26 120/206/26 115/207/26
f 110/208/27 109/209/27 132/210/27 133/148/27
f 107/211/2 116/212/2 119/213/2 111/214/2
f 116/215/28 108/216/28 113/217/28 119/218/28
f 109/219/29 112/220/29 120/221/29 118/222/29 135/223/29 132/224/29
f 130/225/30 128/226/30 121/227/30 122/228/30
f 126/229/31 125/230/31 121/231/31 123/232/31
f 127/233/32 125/234/32 126/235/32
f 122/236/33 121/237/33 125/238/33 124/239/33
f 124/240/34 125/241/34 127/242/34
f 131/243/35 128/244/35 130/245/35
f 129/246/36 131/247/36 108/248/36 116/249/36 107/250/36 105/251/36 115/252/36 106/253/36 127/254/36 126/255/36 123/256/36
f 123/257/37 121/258/37 128/259/37 129/260/37
f 124/261/38 127/262/38 106/263/38 112/264/38 109/265/38 110/266/38 113/267/38 108/268/38 131/269/38 130/270/38 122/271/38
f 129/272/39 128/273/39 131/274/39
f 132/275/40 135/276/40 134/277/40 133/278/40
f 117/279/41 110/280/41 133/281/41 134/282/41
f 137/283/42 139/284/42 136/285/42 138/286/42
f 107/287/43 111/288/43 137/289/43 138/290/43
f 105/291/44 107/292/44 138/293/44 136/294/44
f 114/295/45 111/296/45 119/297/45 120/298/45
f 142/299/2 143/300/2 147/301/2 146/302/2
f 144/303/4 145/304/4 141/305/4 140/306/4
f 151/307/1 150/308/1 145/309/1 144/310/1
f 146/311/1 147/312/1 149/313/1 148/314/1
f 80/315/46 85/316/46 78/317/46 79/318/46
l 15 8
l 2 4
l 56 7
l 10 57
l 88 65
