# Made in Blockbench 4.1.5
mtllib sword.mtl

o cube
v 0.03125 1.1875 0.03125
v 0.03125 1.1875 -0.03125
v 0.03125 0.25 0.03125
v 0.03125 0.25 -0.03125
v -0.03125 1.1875 0.03125
v -0.03125 1.1875 -0.03125
v -0.03125 0.25 0.03125
v -0.03125 0.25 -0.03125
vt 0 1
vt 0.0625 1
vt 0.0625 0.0625
vt 0 0.0625
vt 0.0625 0.0625
vt 0.0625 1
vt 0.125 1
vt 0.125 0.0625
vt 0.5625 0.8125
vt 0.5 0.8125
vt 0.5 0.875
vt 0.5625 0.875
vt 0.5 0.75
vt 0.5 0.8125
vt 0.5625 0.8125
vt 0.5625 0.75
vt 0.125 0.0625
vt 0.125 1
vt 0.1875 1
vt 0.1875 0.0625
vt 0.1875 1
vt 0.25 1
vt 0.25 0.0625
vt 0.1875 0.0625
vn 1 0 0
vn -1 0 0
vn 0 1 0
vn 0 -1 0
vn 0 0 1
vn 0 0 -1
usemtl m_0
f 2/1/1 1/2/1 3/3/1 4/4/1
f 7/5/2 5/6/2 6/7/2 8/8/2
f 5/9/3 1/10/3 2/11/3 6/12/3
f 4/13/4 3/14/4 7/15/4 8/16/4
f 3/17/5 1/18/5 5/19/5 7/20/5
f 6/21/6 2/22/6 4/23/6 8/24/6
o cube
v 0.03125 1.0625 0.09375
v 0.03125 1.0625 0.03125
v 0.03125 0.25 0.09375
v 0.03125 0.25 0.03125
v -0.03125 1.0625 0.09375
v -0.03125 1.0625 0.03125
v -0.03125 0.25 0.09375
v -0.03125 0.25 0.03125
vt 0.25 1
vt 0.3125 1
vt 0.3125 0.1875
vt 0.25 0.1875
vt 0.3125 0.1875
vt 0.3125 1
vt 0.375 1
vt 0.375 0.1875
vt 0.5625 0.9375
vt 0.5 0.9375
vt 0.5 1
vt 0.5625 1
vt 0.5 0.875
vt 0.5 0.9375
vt 0.5625 0.9375
vt 0.5625 0.875
vt 0.375 0.1875
vt 0.375 1
vt 0.4375 1
vt 0.4375 0.1875
vt 0.4375 1
vt 0.5 1
vt 0.5 0.1875
vt 0.4375 0.1875
vn 1 0 0
vn -1 0 0
vn 0 1 0
vn 0 -1 0
vn 0 0 1
vn 0 0 -1
usemtl m_0
f 10/25/7 9/26/7 11/27/7 12/28/7
f 15/29/8 13/30/8 14/31/8 16/32/8
f 13/33/9 9/34/9 10/35/9 14/36/9
f 12/37/10 11/38/10 15/39/10 16/40/10
f 11/41/11 9/42/11 13/43/11 15/44/11
f 14/45/12 10/46/12 12/47/12 16/48/12
o cube
v 0.0625 0.25 0.125
v 0.0625 0.25 -0.0625
v 0.0625 0.1875 0.125
v 0.0625 0.1875 -0.0625
v -0.0625 0.25 -0.0625
v -0.0625 0.25 0.125
v -0.0625 0.1875 -0.0625
v -0.0625 0.1875 0.125
vt 0.1875 0.75
vt 0.3125 0.75
vt 0.3125 0.6875
vt 0.1875 0.6875
vt 0 0.8125
vt 0.1875 0.8125
vt 0.1875 0.75
vt 0 0.75
vt 0.3125 1
vt 0.4375 1
vt 0.4375 0.9375
vt 0.3125 0.9375
vt 0.1875 0.8125
vt 0.375 0.8125
vt 0.375 0.75
vt 0.1875 0.75
vt 0.125 0.8125
vt 0 0.8125
vt 0 1
vt 0.125 1
vt 0.25 1
vt 0.125 1
vt 0.125 0.8125
vt 0.25 0.8125
vn 0 0 -1
vn 1 0 0
vn 0 0 1
vn -1 0 0
vn 0 1 0
vn 0 -1 0
usemtl m_1
f 20/52/13 23/51/13 21/50/13 18/49/13
f 19/56/14 20/55/14 18/54/14 17/53/14
f 24/60/15 19/59/15 17/58/15 22/57/15
f 23/64/16 24/63/16 22/62/16 21/61/16
f 22/68/17 17/67/17 18/66/17 21/65/17
f 23/72/18 20/71/18 19/70/18 24/69/18
o cube
v 0.03125 0.1875 0.0625
v 0.03125 0.1875 0
v 0.03125 0 0.0625
v 0.03125 0 0
v -0.03125 0.1875 0
v -0.03125 0.1875 0.0625
v -0.03125 0 0
v -0.03125 0 0.0625
vt 0 0.75
vt 0.0625 0.75
vt 0.0625 0.5625
vt 0 0.5625
vt 0.25 1
vt 0.3125 1
vt 0.3125 0.8125
vt 0.25 0.8125
vt 0.0625 0.75
vt 0.125 0.75
vt 0.125 0.5625
vt 0.0625 0.5625
vt 0.125 0.75
vt 0.1875 0.75
vt 0.1875 0.5625
vt 0.125 0.5625
vt 0.375 0.875
vt 0.3125 0.875
vt 0.3125 0.9375
vt 0.375 0.9375
vt 0.375 0.875
vt 0.3125 0.875
vt 0.3125 0.8125
vt 0.375 0.8125
vn 0 0 -1
vn 1 0 0
vn 0 0 1
vn -1 0 0
vn 0 1 0
vn 0 -1 0
usemtl m_1
f 28/76/19 31/75/19 29/74/19 26/73/19
f 27/80/20 28/79/20 26/78/20 25/77/20
f 32/84/21 27/83/21 25/82/21 30/81/21
f 31/88/22 32/87/22 30/86/22 29/85/22
f 30/92/23 25/91/23 26/90/23 29/89/23
f 31/96/24 28/95/24 27/94/24 32/93/24